<svg width="560" height="472" viewBox="0 0 560 472" fill="none" xmlns="http://www.w3.org/2000/svg">
<g clip-path="url(#clip0)">
<path d="M266.525 460.241C339.866 460.241 399.322 458.024 399.322 455.289C399.322 452.555 339.866 450.337 266.525 450.337C193.183 450.337 133.728 452.555 133.728 455.289C133.728 458.024 193.183 460.241 266.525 460.241Z" fill="#3F3D56"/>
<path d="M204.62 234.019C230.863 234.019 252.137 211.806 252.137 184.405C252.137 157.004 230.863 134.791 204.62 134.791C178.377 134.791 157.103 157.004 157.103 184.405C157.103 211.806 178.377 234.019 204.62 234.019Z" fill="#0071C5"/>
<path d="M148.636 442.299C170.754 442.299 188.684 440.573 188.684 438.445C188.684 436.316 170.754 434.59 148.636 434.59C126.518 434.59 108.588 436.316 108.588 438.445C108.588 440.573 126.518 442.299 148.636 442.299Z" fill="#3F3D56"/>
<path d="M221.595 455.628C221.595 455.628 254.834 363.079 236.51 306.125C218.186 249.172 203.697 251.396 203.697 251.396C203.697 251.396 178.981 244.722 148.298 264.3C117.616 283.878 109.519 289.662 92.0471 281.653C74.5752 273.644 71.1661 261.185 28.5517 262.52C28.5517 262.52 51.1373 249.617 73.2968 261.185C95.4563 272.754 110.371 278.983 132.957 261.185C155.543 243.387 186.651 220.25 216.907 234.043C216.907 234.043 194.748 211.351 187.503 211.351C180.259 211.351 146.167 207.791 135.088 195.778C135.088 195.778 119.32 184.209 91.1949 212.686C63.0694 241.163 69.8877 241.163 44.7452 238.938C19.6027 236.713 0 223.81 0 223.81C0 223.81 29.4039 236.268 47.302 230.039C65.2001 223.81 80.5413 200.227 96.3086 192.218C112.076 184.209 121.451 173.53 142.758 185.099C142.758 185.099 133.809 146.833 116.764 149.948C99.7178 153.063 124.86 141.049 124.86 141.049C124.86 141.049 120.173 76.0864 111.224 71.6369C102.275 67.1874 107.814 55.6188 91.1949 53.394C91.1949 53.394 111.65 50.7243 115.485 65.4076C119.32 80.0909 145.741 159.292 145.741 159.292C145.741 159.292 161.935 193.108 179.833 185.099C197.731 177.09 173.015 132.15 173.015 132.15L142.332 117.467C142.332 117.467 165.344 116.577 179.407 130.37C193.469 144.164 194.322 188.659 194.322 188.659C194.322 188.659 229.692 193.998 238.215 214.021C238.215 214.021 243.755 196.223 233.101 185.544C230.438 182.874 227.641 178.23 224.944 172.766C214.632 151.868 211.133 128.047 214.377 104.784C215.965 93.3997 216.942 82.2688 215.203 79.646C211.368 73.8617 195.174 38.2657 193.896 28.9218C192.617 19.5778 195.174 4.57764e-05 195.174 4.57764e-05C195.174 4.57764e-05 195.6 24.0273 200.714 31.5915C205.828 39.1556 220.317 76.5313 220.317 76.5313C220.317 76.5313 220.317 123.696 232.249 146.833C244.181 169.971 267.192 195.778 265.914 212.686V222.475C265.914 222.475 291.483 197.113 289.778 188.659C288.073 180.205 285.943 160.182 269.749 148.168C253.556 136.155 242.902 117.022 254.408 89.4349C265.914 61.848 265.914 56.9536 265.914 56.9536L258.243 91.2147C258.243 91.2147 253.982 121.916 265.914 132.595C277.846 143.274 293.613 162.852 293.613 162.852L290.204 98.7788L301.284 124.141C301.284 124.141 325.148 92.1046 353.274 81.4258C381.399 70.747 398.871 33.3712 398.871 33.3712L422.735 13.7935L403.132 38.2657C403.132 38.2657 397.166 67.1874 363.501 87.6551C329.836 108.123 308.102 138.379 306.824 157.067C305.545 175.755 304.267 192.218 304.267 192.218C304.267 192.218 367.336 189.993 381.399 161.072C395.462 132.15 396.74 74.7515 410.377 65.4076C424.014 56.0637 449.582 44.495 449.582 44.495L421.031 68.9672C421.031 68.9672 415.065 88.9899 416.343 103.228C417.621 117.467 406.968 130.815 406.968 130.815L398.871 155.732L389.922 177.09C389.922 177.09 426.57 177.98 445.747 200.672C464.923 223.365 512.652 230.039 512.652 230.039L485.804 237.603C485.804 237.603 460.236 228.704 435.946 212.241C411.655 195.778 414.212 181.094 383.956 197.558C353.7 214.021 312.364 227.814 312.364 227.814C312.364 227.814 336.228 216.245 379.268 244.277C422.309 272.309 357.961 239.383 338.785 250.062C319.608 260.74 310.659 247.392 302.989 274.089C295.318 300.786 281.255 373.758 297.449 414.693L313.642 455.628H221.595Z" fill="#3F3D56"/>
<path opacity="0.1" d="M382.046 161.072C370.621 184.569 326.849 190.444 310.831 191.822C310.381 197.854 310.085 201.668 310.085 201.668C310.085 201.668 373.155 199.443 387.217 170.522C401.28 141.6 402.559 84.2015 416.195 74.8576C417.641 73.8666 419.223 72.8505 420.893 71.826C421.361 70.0301 421.677 68.9672 421.677 68.9672L450.229 44.495C450.229 44.495 424.66 56.0636 411.023 65.4076C397.387 74.7515 396.108 132.15 382.046 161.072Z" fill="black"/>
<path opacity="0.1" d="M308.557 116.12C308.464 127.075 307.102 133.591 307.102 133.591C307.102 133.591 330.956 101.568 359.074 90.8826C360.736 89.7849 362.422 88.7042 364.148 87.655C397.813 67.1873 403.779 38.2656 403.779 38.2656L423.382 13.7934L399.517 33.3712C399.517 33.3712 382.046 70.747 353.92 81.4257C334.749 88.7048 317.56 105.905 308.557 116.12Z" fill="black"/>
<path opacity="0.1" d="M271.732 222.136V231.925C271.732 231.925 297.301 206.563 295.596 198.109C294.293 191.643 292.732 178.414 284.83 167.173C288.392 175.668 289.476 183.955 290.424 188.659C291.647 194.721 278.845 209.477 271.504 217.341C271.761 218.924 271.838 220.534 271.732 222.136Z" fill="black"/>
<path opacity="0.1" d="M237.434 154.959C237.637 155.41 237.846 155.854 238.067 156.283C244.602 168.955 254.454 182.425 261.825 194.797C255.867 182.544 245.5 168.533 237.434 154.959Z" fill="black"/>
<path opacity="0.1" d="M258.21 136.016C254.773 127.225 254.207 116.764 258.155 104.505C258.106 100.063 258.351 95.6218 258.89 91.2147L265.6 61.2439C264.363 65.5659 261.532 73.9039 255.055 89.4348C246.854 109.096 249.915 124.46 258.21 136.016Z" fill="black"/>
<path opacity="0.1" d="M446.393 200.672C433.094 184.935 411.396 179.685 399.342 177.944L395.74 186.54C395.74 186.54 432.389 187.43 451.565 210.122C462.199 222.706 481.611 230.362 496.798 234.688L513.298 230.039C513.298 230.039 465.57 223.365 446.393 200.672Z" fill="black"/>
<path opacity="0.1" d="M185.651 194.549C203.549 186.54 178.833 141.6 178.833 141.6L178.157 141.276C184.319 154.851 193.255 179.382 180.479 185.099C168.524 190.449 157.332 177.139 151.216 167.71C151.438 168.377 151.56 168.742 151.56 168.742C151.56 168.742 167.753 202.558 185.651 194.549Z" fill="black"/>
<path opacity="0.1" d="M244.033 223.471C244.033 223.471 249.426 206.113 239.294 195.396C241.779 204.629 238.861 214.021 238.861 214.021C232.268 198.532 209.613 191.831 199.69 189.59C200.075 194.746 200.14 198.109 200.14 198.109C200.14 198.109 235.51 203.448 244.033 223.471Z" fill="black"/>
<path opacity="0.1" d="M265.6 61.2439C266.56 57.8889 266.561 56.9535 266.561 56.9535L265.6 61.2439Z" fill="black"/>
<path opacity="0.1" d="M52.8616 239.574C52.9476 239.545 53.0349 239.519 53.1202 239.489C71.0183 233.26 86.3595 209.677 102.127 201.668C117.894 193.659 127.269 182.98 148.577 194.549C148.577 194.549 144.849 178.617 137.625 168.151C140.018 173.615 141.952 179.286 143.405 185.099C122.098 173.53 112.722 184.209 96.9551 192.218C81.1878 200.227 65.8465 223.81 47.9485 230.039C30.0504 236.268 0.646469 223.81 0.646469 223.81C0.646469 223.81 20.2491 236.713 45.3916 238.938C48.2678 239.192 50.7219 239.417 52.8616 239.574Z" fill="black"/>
<path opacity="0.1" d="M230.526 455.628C238.335 430.636 257.113 361.526 242.328 315.575C235.944 295.731 230.026 283.077 225.023 275.004C228.764 282.646 232.855 292.755 237.157 306.125C255.481 363.079 222.241 455.628 222.241 455.628H230.526Z" fill="black"/>
<path opacity="0.1" d="M64.1051 266.099C69.3296 266.653 74.415 268.19 79.1151 270.635C96.616 279.772 109.601 285.566 125.412 278.836C129.013 276.85 133.042 274.391 137.688 271.465C138.05 271.189 138.409 270.924 138.775 270.635C161.361 252.837 192.47 229.7 222.726 243.493C222.726 243.493 216.611 237.233 209.756 231.289C182.024 224.186 154.252 244.914 133.604 261.185C111.018 278.983 96.1029 272.754 73.9433 261.185C51.7837 249.617 29.1981 262.52 29.1981 262.52C45.6633 262.004 56.2729 263.549 64.1051 266.099Z" fill="black"/>
<path opacity="0.1" d="M107.36 67.3174C107.846 68.1721 108.435 68.9582 109.113 69.6567C108.615 68.8102 108.027 68.0254 107.36 67.3174Z" fill="black"/>
<path opacity="0.1" d="M185.225 139.82C185.884 140.471 186.501 141.165 187.072 141.9C185.206 137.214 182.9 133.163 180.053 130.37C165.99 116.577 142.979 117.467 142.979 117.467L171.838 131.278C176.783 133.204 181.328 136.104 185.225 139.82Z" fill="black"/>
<path opacity="0.1" d="M215.849 79.6459C217.588 82.2688 216.611 93.3997 215.024 104.784C211.78 128.047 215.278 151.868 225.591 172.766C226.948 175.57 228.465 178.288 230.131 180.904C220.311 160.324 217.019 137.012 220.195 114.234C221.783 102.85 222.76 91.7188 221.021 89.0959C217.186 83.3116 200.992 47.7156 199.714 38.3717C199.331 34.7467 199.241 31.0943 199.447 27.4536C196.137 17.6469 195.821 0 195.821 0C195.821 0 193.264 19.5778 194.542 28.9217C195.821 38.2656 212.014 73.8616 215.849 79.6459Z" fill="black"/>
<path opacity="0.1" d="M255.828 18.1333C255.657 17.2539 255.398 16.3958 255.055 15.5733C255.055 15.5733 255.382 16.5336 255.828 18.1333Z" fill="black"/>
<path opacity="0.1" d="M105.312 62.9455C109.068 63.4256 113.388 64.6288 116.683 67.4191C116.468 66.66 116.281 65.9795 116.132 65.4076C112.296 50.7243 91.8414 53.394 91.8414 53.394C101.085 54.6314 103.473 58.7596 105.312 62.9455Z" fill="black"/>
<path d="M211.229 436.617C214.267 448.344 224.674 455.607 224.674 455.607C224.674 455.607 230.155 443.856 227.117 432.129C224.079 420.402 213.671 413.139 213.671 413.139C213.671 413.139 208.19 424.889 211.229 436.617Z" fill="#3F3D56"/>
<path d="M215.693 434.096C224.031 442.571 225.049 455.598 225.049 455.598C225.049 455.598 212.55 454.885 204.213 446.411C195.875 437.936 194.857 424.91 194.857 424.91C194.857 424.91 207.356 425.622 215.693 434.096Z" fill="#0071C5"/>
<path d="M188.06 116.131C187.335 128.257 178.534 137.551 178.534 137.551C178.534 137.551 170.908 127.186 171.633 115.061C172.357 102.935 181.159 93.6412 181.159 93.6412C181.159 93.6412 188.785 104.006 188.06 116.131Z" fill="#0071C5"/>
<path d="M96.3151 39.4774C106.158 45.9566 109.748 58.4777 109.748 58.4777C109.748 58.4777 97.3796 60.4941 87.5371 54.0149C77.6945 47.5357 74.1045 35.0145 74.1045 35.0145C74.1045 35.0145 86.4725 32.9981 96.3151 39.4774Z" fill="#0071C5"/>
<path d="M74.3351 187.302C84.1776 193.781 87.7676 206.303 87.7676 206.303C87.7676 206.303 75.3997 208.319 65.5571 201.84C55.7145 195.36 52.1245 182.839 52.1245 182.839C52.1245 182.839 64.4925 180.823 74.3351 187.302Z" fill="#0071C5"/>
<path d="M126.699 244.002C136.542 250.481 140.132 263.002 140.132 263.002C140.132 263.002 127.764 265.019 117.921 258.54C108.079 252.06 104.489 239.539 104.489 239.539C104.489 239.539 116.857 237.523 126.699 244.002Z" fill="#0071C5"/>
<path d="M274.431 61.0881C271.462 72.8351 261.099 80.1658 261.099 80.1658C261.099 80.1658 255.548 68.451 258.516 56.7041C261.484 44.9571 271.848 37.6264 271.848 37.6264C271.848 37.6264 277.399 49.3412 274.431 61.0881Z" fill="#0071C5"/>
<path d="M368.063 70.2475C364.574 81.8374 353.895 88.6565 353.895 88.6565C353.895 88.6565 348.872 76.6846 352.361 65.0947C355.849 53.5047 366.528 46.6857 366.528 46.6857C366.528 46.6857 371.551 58.6576 368.063 70.2475Z" fill="#0071C5"/>
<path d="M469.264 199.238C462.944 209.439 450.911 213.041 450.911 213.041C450.911 213.041 449.124 200.105 455.444 189.904C461.764 179.703 473.797 176.101 473.797 176.101C473.797 176.101 475.584 189.037 469.264 199.238Z" fill="#0071C5"/>
<path d="M310.386 282.649C310.386 282.649 309.371 286.535 311.401 287.949C313.431 289.362 314.108 296.074 314.108 296.074L310.048 307.733L299.22 309.853L295.16 301.727V289.715C295.16 289.715 296.513 283.709 296.175 281.943C295.836 280.176 310.386 282.649 310.386 282.649Z" fill="#FFB9B9"/>
<path opacity="0.2" d="M310.386 282.649C310.386 282.649 309.371 286.535 311.401 287.949C313.431 289.362 314.108 296.074 314.108 296.074L310.048 307.733L299.22 309.853L295.16 301.727V289.715C295.16 289.715 296.513 283.709 296.175 281.943C295.836 280.176 310.386 282.649 310.386 282.649Z" fill="black"/>
<path d="M321.214 349.422L330.011 351.189C330.011 351.189 330.688 361.434 330.011 363.907C329.334 366.38 328.658 369.207 329.334 369.913C330.011 370.62 326.289 388.638 326.628 389.698C326.966 390.758 327.643 393.938 327.304 396.057C326.966 398.177 325.951 397.471 326.628 399.59C327.304 401.71 327.981 402.063 327.304 403.477C326.628 404.89 323.244 439.16 322.229 439.513C321.214 439.866 312.078 440.219 312.078 439.513C312.078 438.806 315.123 433.507 314.108 432.094C313.093 430.68 314.446 406.656 314.446 405.596C314.446 404.536 316.477 402.77 315.461 402.063C314.446 401.357 313.77 400.65 314.108 399.59C314.446 398.53 315.123 398.177 314.446 397.117C313.77 396.057 313.77 374.86 311.401 374.153C311.401 374.153 308.356 389.698 309.371 393.584C310.386 397.471 309.033 398.884 309.033 398.884L313.77 403.123L307.341 415.842L300.573 407.716C300.573 407.716 300.573 405.596 299.22 405.243C297.867 404.89 297.19 404.536 297.19 403.477C297.19 402.417 294.821 395.704 294.821 395.704C294.821 395.704 288.054 373.446 291.438 362.141C294.821 350.835 296.125 351.21 296.125 351.21L321.214 349.422Z" fill="#2F2E41"/>
<path d="M326.627 422.555L330.35 426.794L328.996 438.453H325.951L321.214 427.501L326.627 422.555Z" fill="#FFB9B9"/>
<path d="M328.996 430.327C328.996 430.327 327.643 433.507 326.628 432.8C325.612 432.094 325.276 431.034 323.752 431.034C322.229 431.034 320.875 431.387 321.214 432.094C321.552 432.8 325.612 440.573 325.612 440.573C326.208 441.899 326.517 443.347 326.517 444.812C326.517 446.278 326.208 447.725 325.612 449.052C323.582 453.645 331.026 456.118 332.38 451.172C333.733 446.225 334.072 440.573 333.733 438.453C333.395 436.333 335.425 425.381 335.425 425.381C335.425 425.381 329.959 422.75 328.293 422.652C328.293 422.652 329.673 428.914 328.996 430.327Z" fill="#2F2E41"/>
<path d="M319.86 438.1L321.214 442.339C321.214 442.339 321.214 446.579 322.567 448.699C323.921 450.818 325.274 455.411 319.86 455.764C314.446 456.118 312.078 453.998 312.078 453.998C312.078 453.998 313.093 451.172 312.078 450.112C311.063 449.052 312.078 446.932 312.078 446.932L313.093 438.453L319.86 438.1Z" fill="#2F2E41"/>
<path d="M310.724 402.77H313.77L328.996 423.614C328.996 423.614 326.289 430.327 322.229 431.034C322.229 431.034 321.552 430.68 318.507 428.561C315.461 426.441 307.341 415.842 307.341 415.842L306.326 409.836L310.724 402.77Z" fill="#2F2E41"/>
<path d="M303.28 287.242C309.26 287.242 314.108 282.18 314.108 275.937C314.108 269.693 309.26 264.631 303.28 264.631C297.3 264.631 292.453 269.693 292.453 275.937C292.453 282.18 297.3 287.242 303.28 287.242Z" fill="#FFB9B9"/>
<path d="M316.477 290.422L313.093 289.008C313.093 289.008 312.755 301.374 306.326 301.374C299.897 301.374 293.129 299.607 293.129 296.074C293.129 292.541 287.716 302.434 287.716 302.434C287.716 302.434 292.791 337.763 292.453 338.117C292.114 338.47 296.175 357.195 296.175 357.195C296.175 357.195 313.431 357.901 319.184 355.428C324.936 352.955 326.628 348.362 326.628 348.362L324.259 317.272L319.522 293.248L316.477 290.422Z" fill="#E0FFFF"/>
<path d="M310.726 287.242C310.726 287.242 312.078 285.829 314.108 287.242C316.138 288.655 328.658 291.835 328.658 292.895V306.32C328.658 306.32 328.996 308.44 327.981 309.853C326.966 311.266 324.597 316.566 325.951 319.039C327.304 321.512 332.38 350.129 331.365 353.662C330.35 357.195 327.643 360.374 327.643 360.374C327.643 360.374 313.093 328.224 313.093 319.039C313.093 309.853 313.234 298.584 313.234 298.584L310.726 287.242Z" fill="#0071C5"/>
<path d="M325.612 293.248H328.658C328.658 293.248 340.162 316.212 340.162 320.805C340.162 325.398 332.718 350.835 332.041 351.189C331.365 351.542 329.334 347.302 329.334 347.302L327.643 333.171C327.643 333.171 331.026 324.691 330.011 323.278C328.996 321.865 323.921 310.913 323.921 310.913L325.612 293.248Z" fill="#E0FFFF"/>
<path d="M295.66 287.242C295.66 287.242 291.776 290.068 291.099 291.128C290.422 292.188 280.272 298.194 279.933 299.607C279.595 301.021 287.716 313.033 287.716 313.033C287.716 313.033 291.099 332.817 291.099 334.23C291.099 335.644 292.453 359.668 292.453 359.668C292.453 359.668 306.326 363.907 306.326 361.434C306.326 358.961 306.664 323.632 304.634 315.859C302.604 308.087 295.66 287.242 295.66 287.242Z" fill="#0071C5"/>
<path d="M297.867 360.374C297.867 360.374 309.371 376.626 303.28 376.273C297.19 375.919 293.129 362.141 293.129 362.141L297.867 360.374Z" fill="#FFB9B9"/>
<path d="M283.994 298.548L279.933 299.607C279.933 299.607 276.55 330.698 278.58 334.937C280.61 339.177 291.438 366.734 291.438 365.674C291.438 364.614 300.962 362.725 300.599 361.726C300.235 360.728 298.205 356.488 297.528 355.075C296.851 353.662 295.836 351.895 296.175 350.129C296.513 348.362 292.453 340.801 292.453 340.801C292.453 340.801 291.438 336.35 291.099 334.23C290.761 332.111 287.716 308.793 287.716 308.793L283.994 298.548Z" fill="#E0FFFF"/>
<path d="M313.897 267.185C313.69 266.52 313.253 265.96 312.671 265.613C312.702 264.911 312.614 264.209 312.413 263.539C311.739 261.581 310.142 261.693 308.636 260.827C307.982 260.452 308.022 260.12 307.682 259.503C307.225 258.683 306.558 258.013 305.755 257.57C304.825 256.881 303.752 256.434 302.625 256.265C300.222 256.104 298.38 258.325 296.083 259.038C295.071 259.352 293.983 259.365 292.965 259.662C291.948 259.959 290.933 260.668 290.781 261.701C290.711 262.178 290.834 262.667 290.763 263.143C290.622 264.09 289.777 264.754 289.211 265.533C287.959 267.256 288.102 269.689 289.103 271.564C289.315 271.953 289.556 272.325 289.825 272.674C289.91 273.565 290.169 274.428 290.587 275.21C291.588 277.084 293.31 278.485 295.11 279.649C294.963 279.028 294.873 278.394 294.843 277.756C294.818 277.543 294.846 277.327 294.925 277.129C295.125 276.717 295.655 276.608 296.058 276.382C296.443 276.118 296.756 275.753 296.964 275.324C297.172 274.895 297.27 274.417 297.247 273.937C297.271 272.992 297.067 272.045 297.168 271.105C297.173 270.886 297.224 270.671 297.317 270.474C297.41 270.278 297.543 270.105 297.707 269.967C298.019 269.793 298.37 269.711 298.723 269.729C300.436 269.661 302.226 269.63 303.737 268.833C304.228 268.514 304.751 268.253 305.298 268.057C306.582 267.728 307.895 268.613 308.635 269.696C309.375 270.778 309.744 272.067 310.427 273.185C311.11 274.304 312.29 275.301 313.61 275.169C313.684 275.169 313.757 275.154 313.824 275.125C313.892 275.095 313.954 275.051 314.005 274.996C314.061 274.897 314.087 274.782 314.077 274.666L314.151 269.706C314.212 268.856 314.126 268.002 313.897 267.185Z" fill="#2F2E41"/>
</g>
<defs>
<clipPath id="clip0">
<rect width="560" height="472" fill="white"/>
</clipPath>
</defs>
</svg>
