<svg width="149" height="59" viewBox="0 0 149 59" fill="none" xmlns="http://www.w3.org/2000/svg">
<path d="M8.47707 9.89464C8.47707 8.8179 8.96212 7.82617 9.93221 6.91945C10.0225 6.82877 10.0676 6.73243 10.0676 6.63043C10.0676 6.51709 10.0281 6.40375 9.94913 6.2904C9.88145 6.16573 9.74045 6.10339 9.52613 6.10339H5.8375C5.34117 6.10339 4.95765 6.2564 4.68692 6.56242C4.23571 7.07246 4.01011 7.59382 4.01011 8.12652V9.09559C4.01011 9.97964 3.59838 10.5917 2.77493 10.9317C2.52676 11.0337 2.26168 11.0847 1.97967 11.0847C1.70895 11.0847 1.44951 11.0337 1.20134 10.9317C0.964457 10.8297 0.761413 10.688 0.59221 10.5067C0.197403 10.1213 0 9.65096 0 9.09559V8.07552C0 6.69276 0.490689 5.50836 1.47207 4.52229C2.45344 3.53623 3.63222 3.0432 5.00841 3.0432H14.3315C14.7601 3.0432 15.1155 3.19621 15.3975 3.50223C15.6908 3.79691 15.8374 4.10293 15.8374 4.42028C15.8374 4.73764 15.7979 4.99266 15.719 5.18533C15.64 5.36668 15.5328 5.52536 15.3975 5.66136C15.1042 5.95605 14.7883 6.10339 14.4499 6.10339C14.1115 6.10339 13.8295 6.16006 13.6039 6.2734C13.3783 6.37541 13.1809 6.51709 13.0117 6.69843C12.6507 7.08379 12.4703 7.55415 12.4703 8.10952V21.1154C12.4703 22.5094 11.9852 23.6939 11.0151 24.6686C10.0337 25.6547 8.85496 26.1477 7.47877 26.1477H5.51602C5.08737 26.1477 4.7264 26.0003 4.43312 25.7057C4.13983 25.411 3.99319 25.0539 3.99319 24.6346C3.99319 24.2039 4.13983 23.8355 4.43312 23.5295C4.7264 23.2235 5.08737 23.0705 5.51602 23.0705H6.48047C7.0332 23.0705 7.45621 22.9288 7.7495 22.6455C8.23454 22.1808 8.47707 21.6594 8.47707 21.0814V9.89464Z" fill="#E0FFFF"/>
<path d="M20.7274 25.7567C20.4454 26.0287 20.1803 26.2157 19.9321 26.3177C19.6952 26.431 19.4358 26.4877 19.1538 26.4877C18.8831 26.4877 18.6236 26.4367 18.3754 26.3347C18.1273 26.2327 17.913 26.091 17.7325 25.9097C17.3377 25.513 17.1403 25.0426 17.1403 24.4986V2.00613C17.1403 1.45076 17.2869 1.0314 17.5802 0.748048C18.0652 0.249349 18.5164 0 18.9338 0C19.3625 0 19.6952 0.0510033 19.9321 0.15301C20.1803 0.255016 20.3946 0.396692 20.5751 0.578037C20.9699 0.974729 21.1673 1.45076 21.1673 2.00613V8.72156C21.1673 8.93691 21.2237 9.08425 21.3365 9.16359C21.4606 9.2316 21.579 9.2656 21.6918 9.2656C21.8046 9.2656 21.9118 9.21459 22.0133 9.11259L22.284 8.84057C23.0511 8.06985 23.9366 7.68449 24.9405 7.68449C26.1588 7.68449 27.1684 8.18319 27.9693 9.18059C28.7701 10.1667 29.1706 11.3454 29.1706 12.7168V24.4986C29.1706 25.36 28.7701 25.9663 27.9693 26.3177C27.7211 26.431 27.456 26.4877 27.174 26.4877C26.9033 26.4877 26.6438 26.4367 26.3957 26.3347C26.1475 26.2327 25.9332 26.091 25.7527 25.9097C25.3579 25.513 25.1605 25.0426 25.1605 24.4986V12.7678C25.1605 12.2011 25.0195 11.7761 24.7375 11.4927C24.2411 10.994 23.7843 10.7447 23.3669 10.7447C22.9608 10.7447 22.6394 10.79 22.4025 10.8807C22.1656 10.96 21.9569 11.079 21.7764 11.2377C21.3703 11.5777 21.1673 12.0198 21.1673 12.5638V24.4986C21.1673 25.0539 21.0206 25.4733 20.7274 25.7567Z" fill="#E0FFFF"/>
<path d="M43.4682 23.0705C43.8969 23.0705 44.2579 23.2235 44.5511 23.5295C44.8444 23.8355 44.9911 24.2039 44.9911 24.6346C44.9911 25.0539 44.8444 25.411 44.5511 25.7057C44.2579 26.0003 43.8969 26.1477 43.4682 26.1477H39.4751C38.0989 26.1477 36.9201 25.6547 35.9387 24.6686C34.9573 23.6825 34.4666 22.4981 34.4666 21.1154V12.7678C34.4666 11.2264 34.9855 9.99664 36.0233 9.07858C37.1062 8.14919 38.5952 7.68449 40.4903 7.68449C42.3628 7.68449 43.8405 8.14919 44.9234 9.07858C45.9724 10.008 46.497 11.2491 46.497 12.8018V17.5621C46.497 18.1288 46.356 18.5539 46.074 18.8372C45.5889 19.3246 45.0588 19.5683 44.4835 19.5683H38.4768V21.0814C38.4768 21.6594 38.6178 22.0844 38.8998 22.3564C39.3961 22.8325 39.9206 23.0705 40.4734 23.0705H43.4682ZM42.4869 12.7678C42.4869 12.2011 42.3459 11.7761 42.0639 11.4927C41.5675 10.994 41.043 10.7447 40.4903 10.7447C39.9263 10.7447 39.4976 10.892 39.2043 11.1867C38.7193 11.6741 38.4768 12.2011 38.4768 12.7678V16.5931H42.4869V12.7678Z" fill="#E0FFFF"/>
<path d="M43.5019 30.8972H42.9774C42.4134 30.8972 41.9904 31.0389 41.7084 31.3222C41.2121 31.8209 40.9639 32.3536 40.9639 32.9203V33.8894C40.9639 34.7734 40.5522 35.3855 39.7287 35.7255C39.4805 35.8275 39.2155 35.8785 38.9335 35.8785C38.6627 35.8785 38.4033 35.8275 38.1551 35.7255C37.9182 35.6235 37.7152 35.4818 37.546 35.3005C37.1512 34.9151 36.9538 34.4448 36.9538 33.8894V32.8693C36.9538 31.4752 37.4445 30.2908 38.4258 29.3161C39.4298 28.33 40.6086 27.837 41.9622 27.837H45.4985C46.0513 27.837 46.4686 27.9787 46.7506 28.262C47.247 28.7607 47.4951 29.2991 47.4951 29.8771V53.9677C47.4951 55.3504 47.0044 56.5348 46.0231 57.5209C45.0417 58.507 43.8573 59 42.4698 59H39.8302C39.176 59 38.7079 58.694 38.4258 58.0819C38.3469 57.8893 38.3074 57.6853 38.3074 57.4699C38.3074 57.0619 38.4146 56.7389 38.6289 56.5008C39.0011 56.1155 39.4016 55.9228 39.8302 55.9228H41.4884C42.0524 55.9228 42.4754 55.7811 42.7574 55.4978C43.2538 54.9991 43.5019 54.4777 43.5019 53.9337V30.8972Z" fill="#E0FFFF"/>
<path d="M53.248 37.4766C53.248 35.9465 53.7669 34.7338 54.8047 33.8384C55.8876 32.9317 57.3766 32.4783 59.2717 32.4783C61.1442 32.4783 62.6219 32.9317 63.7048 33.8384C64.7538 34.7451 65.2784 35.9692 65.2784 37.5106V46.3002C65.2784 48.669 64.1278 50.2161 61.8266 50.9415C61.0821 51.1682 60.2305 51.2815 59.2717 51.2815C58.3241 51.2815 57.4781 51.1682 56.7336 50.9415C55.9891 50.7035 55.3574 50.3634 54.8385 49.9214C53.7782 49.0374 53.248 47.8133 53.248 46.2492V37.4766ZM61.2682 37.5616C61.2682 36.9949 61.1273 36.5699 60.8452 36.2865C60.3489 35.7878 59.8244 35.5385 59.2717 35.5385C58.7076 35.5385 58.279 35.6858 57.9857 35.9805C57.5007 36.4679 57.2581 36.9949 57.2581 37.5616V46.4022C57.2581 46.9802 57.4499 47.4279 57.8334 47.7453C58.217 48.0513 58.6907 48.2043 59.2547 48.2043C59.83 48.2043 60.3094 48.0513 60.693 47.7453C61.0765 47.4279 61.2682 46.9802 61.2682 46.4022V37.5616Z" fill="#E0FFFF"/>
<path d="M79.0176 33.2263C79.3109 32.943 79.576 32.7503 79.8129 32.6483C80.0611 32.535 80.3205 32.4783 80.5912 32.4783C80.8732 32.4783 81.1327 32.5293 81.3696 32.6313C81.6177 32.7333 81.8321 32.875 82.0125 33.0563C82.4073 33.453 82.6047 33.9234 82.6047 34.4674V49.2414C82.6047 49.7967 82.4637 50.2274 82.1817 50.5335C81.6967 51.0322 81.2342 51.2815 80.7943 51.2815C80.3656 51.2815 80.0441 51.2305 79.8298 51.1285C79.6155 51.0378 79.4407 50.9301 79.3053 50.8055C79.091 50.6241 78.9387 50.4428 78.8484 50.2614C78.7695 50.0688 78.6962 49.9271 78.6285 49.8364C78.5608 49.7457 78.4536 49.7004 78.307 49.7004C78.1716 49.7004 78.0588 49.7514 77.9686 49.8534C77.8783 49.9441 77.7317 50.0914 77.5287 50.2954C76.8518 50.9528 76.1074 51.2815 75.2952 51.2815C74.4943 51.2815 73.8231 51.1512 73.2817 50.8905C72.7402 50.6185 72.2664 50.2501 71.8604 49.7854C71.0031 48.7993 70.5744 47.6206 70.5744 46.2492V34.4674C70.5744 33.606 70.9805 32.9997 71.7927 32.6483C72.0296 32.535 72.2834 32.4783 72.5541 32.4783C72.8361 32.4783 73.1012 32.5293 73.3493 32.6313C73.5975 32.7333 73.8118 32.875 73.9923 33.0563C74.3871 33.453 74.5845 33.9234 74.5845 34.4674V46.1982C74.5845 46.7649 74.7255 47.1899 75.0075 47.4733C75.5039 47.972 76.0228 48.2213 76.5642 48.2213C77.4553 48.2213 78.0757 47.87 78.4254 47.1672C78.5382 46.9406 78.5946 46.6855 78.5946 46.4022V34.4674C78.5946 33.9121 78.7356 33.4984 79.0176 33.2263Z" fill="#E0FFFF"/>
<path d="M95.7518 32.4783C96.0338 32.4783 96.3102 32.518 96.5809 32.5973C96.8516 32.6766 97.1054 32.8013 97.3423 32.9713C97.8838 33.368 98.1545 33.9177 98.1545 34.6204C98.1545 35.1871 98.0079 35.6122 97.7146 35.8955C97.207 36.3829 96.7332 36.6266 96.2933 36.6266C95.7293 36.6266 95.216 36.4452 94.7535 36.0825C94.3926 35.8445 93.9865 35.7255 93.5353 35.7255C93.084 35.7255 92.7287 35.8728 92.4693 36.1675C92.2098 36.4509 92.0801 36.8136 92.0801 37.2556V49.2754C92.0801 49.8194 91.9391 50.2388 91.6571 50.5335C91.1495 51.0322 90.687 51.2815 90.2696 51.2815C89.8635 51.2815 89.5364 51.2248 89.2883 51.1115C89.0514 51.0095 88.8427 50.8678 88.6622 50.6865C88.2674 50.2898 88.07 49.8194 88.07 49.2754V34.5184C88.07 33.9631 88.2166 33.5324 88.5099 33.2263C88.9837 32.7276 89.4349 32.4783 89.8635 32.4783C90.3035 32.4783 90.6306 32.5293 90.8449 32.6313C91.0593 32.722 91.2397 32.8297 91.3864 32.9543C91.5894 33.1357 91.7361 33.3227 91.8263 33.5154C91.9165 33.6967 91.9899 33.8327 92.0463 33.9234C92.114 34.0141 92.2155 34.0594 92.3508 34.0594C92.4975 34.0594 92.6159 34.0141 92.7062 33.9234L93.0107 33.6344C93.8906 32.8637 94.8043 32.4783 95.7518 32.4783Z" fill="#E0FFFF"/>
<path d="M105.887 50.5505C105.605 50.8225 105.34 51.0095 105.092 51.1115C104.855 51.2248 104.595 51.2815 104.313 51.2815C104.043 51.2815 103.783 51.2305 103.535 51.1285C103.298 51.0265 103.09 50.8848 102.909 50.7035C102.514 50.3068 102.317 49.8364 102.317 49.2924V34.5184C102.317 33.9631 102.464 33.5324 102.757 33.2263C103.231 32.7276 103.682 32.4783 104.11 32.4783C104.55 32.4783 104.872 32.5293 105.075 32.6313C105.289 32.722 105.47 32.8297 105.616 32.9543C105.831 33.1357 105.977 33.3227 106.056 33.5154C106.147 33.6967 106.225 33.8327 106.293 33.9234C106.361 34.0141 106.462 34.0594 106.598 34.0594C106.744 34.0594 106.863 34.0141 106.953 33.9234C107.043 33.8214 107.19 33.6684 107.393 33.4644C108.07 32.807 108.809 32.4783 109.61 32.4783C110.422 32.4783 111.099 32.6143 111.64 32.8863C112.181 33.147 112.65 33.5097 113.044 33.9744C113.913 34.9605 114.347 36.1392 114.347 37.5106V49.2924C114.347 50.1538 113.947 50.7601 113.146 51.1115C112.898 51.2248 112.633 51.2815 112.351 51.2815C112.08 51.2815 111.82 51.2305 111.572 51.1285C111.324 51.0265 111.11 50.8848 110.929 50.7035C110.535 50.3068 110.337 49.8364 110.337 49.2924V37.5616C110.337 37.0063 110.202 36.5812 109.931 36.2865C109.446 35.7878 108.927 35.5385 108.374 35.5385C107.472 35.5385 106.846 35.8898 106.496 36.5926C106.383 36.8192 106.327 37.0743 106.327 37.3576V49.2924C106.327 49.8477 106.18 50.2671 105.887 50.5505Z" fill="#E0FFFF"/>
<path d="M128.645 47.8643C129.074 47.8643 129.434 48.0173 129.728 48.3233C130.021 48.6293 130.168 48.9977 130.168 49.4284C130.168 49.8477 130.021 50.2048 129.728 50.4995C129.434 50.7941 129.074 50.9415 128.645 50.9415H124.652C123.275 50.9415 122.097 50.4485 121.115 49.4624C120.134 48.4763 119.643 47.2919 119.643 45.9092V37.5616C119.643 36.0202 120.162 34.7904 121.2 33.8724C122.283 32.943 123.772 32.4783 125.667 32.4783C127.539 32.4783 129.017 32.943 130.1 33.8724C131.149 34.8018 131.674 36.0429 131.674 37.5956V42.3559C131.674 42.9226 131.533 43.3477 131.251 43.631C130.766 44.1184 130.235 44.3621 129.66 44.3621H123.653V45.8752C123.653 46.4532 123.794 46.8782 124.076 47.1502C124.573 47.6263 125.097 47.8643 125.65 47.8643H128.645ZM127.663 37.5616C127.663 36.9949 127.522 36.5699 127.24 36.2865C126.744 35.7878 126.22 35.5385 125.667 35.5385C125.103 35.5385 124.674 35.6858 124.381 35.9805C123.896 36.4679 123.653 36.9949 123.653 37.5616V41.3869H127.663V37.5616Z" fill="#E0FFFF"/>
<path d="M145.396 33.2263C145.689 32.943 145.954 32.7503 146.191 32.6483C146.439 32.535 146.699 32.4783 146.97 32.4783C147.252 32.4783 147.517 32.5293 147.765 32.6313C148.013 32.7333 148.227 32.875 148.408 33.0563C148.803 33.453 149 33.9234 149 34.4674V53.9677C149 55.3618 148.509 56.5462 147.528 57.5209C146.524 58.507 145.334 59 143.958 59H140.963C140.534 59 140.168 58.8527 139.863 58.558C139.57 58.2633 139.423 57.9006 139.423 57.4699C139.423 57.0392 139.57 56.6709 139.863 56.3648C140.168 56.0701 140.534 55.9228 140.963 55.9228H142.959C143.535 55.9228 143.963 55.7811 144.245 55.4978C144.73 55.0104 144.973 54.489 144.973 53.9337V50.2444C144.973 50.0291 144.911 49.8874 144.787 49.8194C144.674 49.7401 144.561 49.7004 144.448 49.7004C144.336 49.7004 144.234 49.7514 144.144 49.8534L143.856 50.1254C143.089 50.8961 142.204 51.2815 141.2 51.2815C139.981 51.2815 138.972 50.7828 138.171 49.7854C137.37 48.7993 136.97 47.6206 136.97 46.2492V34.4674C136.97 33.606 137.376 32.9997 138.188 32.6483C138.425 32.535 138.679 32.4783 138.949 32.4783C139.231 32.4783 139.496 32.5293 139.745 32.6313C139.993 32.7333 140.207 32.875 140.388 33.0563C140.782 33.453 140.98 33.9234 140.98 34.4674V46.1982C140.98 46.7535 141.121 47.1786 141.403 47.4733C141.877 47.972 142.322 48.2213 142.739 48.2213C143.157 48.2213 143.484 48.1816 143.721 48.1023C143.969 48.0116 144.189 47.887 144.381 47.7283C144.776 47.3883 144.973 46.9462 144.973 46.4022V34.4674C144.973 33.9121 145.114 33.4984 145.396 33.2263Z" fill="#E0FFFF"/>
<path d="M142.845 20.1243L144.238 24.3348H148.745L145.098 26.937L146.491 31.1474L142.845 28.5452L139.198 31.1474L140.591 26.937L136.945 24.3348H141.452L142.845 20.1243Z" fill="#E0FFFF"/>
<path d="M130.158 11.9998L131.144 15.0003H134.335L131.754 16.8548L132.74 19.8553L130.158 18.0009L127.577 19.8553L128.563 16.8548L125.982 15.0003H129.172L130.158 11.9998Z" fill="#E0FFFF"/>
<path d="M116.914 5.83638L117.618 7.96579H119.897L118.054 9.28184L118.758 11.4113L116.914 10.0952L115.07 11.4113L115.775 9.28184L113.931 7.96579H116.21L116.914 5.83638Z" fill="#E0FFFF"/>
<path d="M104.437 2.05427L104.875 3.36096H106.293L105.146 4.16854L105.584 5.47522L104.437 4.66764L103.289 5.47522L103.728 4.16854L102.58 3.36096H103.998L104.437 2.05427Z" fill="#E0FFFF"/>
<path d="M59.3368 39.0349L59.7594 40.5835H61.1268L60.0205 41.5406L60.4431 43.0893L59.3368 42.1322L58.2306 43.0893L58.6531 41.5406L57.5469 40.5835H58.9143L59.3368 39.0349Z" fill="#E0FFFF"/>
<path d="M40.5162 11.8597L40.9387 13.4084H42.3061L41.1999 14.3655L41.6224 15.9142L40.5162 14.9571L39.4099 15.9142L39.8325 14.3655L38.7262 13.4084H40.0936L40.5162 11.8597Z" fill="#E0FFFF"/>
<path d="M125.697 36.7936L126.12 38.3423H127.487L126.381 39.2994L126.803 40.8481L125.697 39.8909L124.591 40.8481L125.013 39.2994L123.907 38.3423H125.275L125.697 36.7936Z" fill="#E0FFFF"/>
</svg>
